<svg width="88" height="18" viewBox="0 0 88 18" fill="none" xmlns="http://www.w3.org/2000/svg">
<path d="M5.736 1.872C6.792 1.872 7.704 1.984 8.472 2.208C9.24 2.416 9.904 2.672 10.464 2.976L9.648 5.64C9.024 5.32 8.392 5.072 7.752 4.896C7.128 4.704 6.528 4.608 5.952 4.608C5.216 4.608 4.656 4.744 4.272 5.016C3.888 5.288 3.696 5.648 3.696 6.096C3.696 6.608 3.88 6.984 4.248 7.224C4.616 7.448 5.184 7.688 5.952 7.944L7.368 8.4C7.928 8.592 8.448 8.832 8.928 9.12C9.408 9.392 9.816 9.712 10.152 10.08C10.504 10.448 10.776 10.864 10.968 11.328C11.16 11.792 11.256 12.296 11.256 12.84C11.256 13.48 11.136 14.088 10.896 14.664C10.656 15.224 10.288 15.72 9.792 16.152C9.312 16.584 8.696 16.928 7.944 17.184C7.208 17.424 6.336 17.544 5.328 17.544C4.384 17.544 3.48 17.448 2.616 17.256C1.768 17.048 0.984 16.76 0.264 16.392L1.08 13.728C1.768 14.064 2.44 14.328 3.096 14.52C3.752 14.712 4.44 14.808 5.16 14.808C6.008 14.808 6.616 14.672 6.984 14.4C7.368 14.112 7.56 13.728 7.56 13.248C7.56 13.088 7.528 12.928 7.464 12.768C7.4 12.608 7.272 12.448 7.08 12.288C6.904 12.128 6.648 11.976 6.312 11.832C5.992 11.672 5.576 11.512 5.064 11.352L3.888 10.944C3.328 10.736 2.808 10.504 2.328 10.248C1.848 9.992 1.432 9.688 1.08 9.336C0.744 8.984 0.48 8.576 0.288 8.112C0.096 7.648 0 7.096 0 6.456C0 5.8 0.12 5.192 0.36 4.632C0.616 4.072 0.984 3.592 1.464 3.192C1.96 2.776 2.56 2.456 3.264 2.232C3.984 1.992 4.808 1.872 5.736 1.872Z" fill="black"/>
<path d="M17.133 13.536V17.28H13.605V0.12H17.133V10.128L20.733 5.76H25.029L20.685 10.608L25.221 17.28H21.045L17.997 12.648L17.133 13.536Z" fill="black"/>
<path d="M26.9694 17.28V5.76H30.5214V17.28H26.9694ZM28.7454 3.504C28.1374 3.504 27.6734 3.336 27.3534 3C27.0334 2.648 26.8734 2.232 26.8734 1.752C26.8734 1.272 27.0334 0.864 27.3534 0.528C27.6894 0.176 28.1534 0 28.7454 0C29.3374 0 29.7934 0.168 30.1134 0.503999C30.4494 0.84 30.6174 1.256 30.6174 1.752C30.6174 2.248 30.4574 2.664 30.1374 3C29.8174 3.336 29.3534 3.504 28.7454 3.504Z" fill="black"/>
<path d="M33.6446 17.28V0.12H37.1486V17.28H33.6446Z" fill="black"/>
<path d="M40.0899 17.28V0.12H43.5939V17.28H40.0899Z" fill="black"/>
<path d="M46.6553 17.2801V2.16012H50.3033V8.04012H55.5593V2.16012H59.2073V17.2801H55.5593V10.8721H50.3033V17.2801H46.6553Z" fill="#6E74FF"/>
<path d="M69.5098 5.76012H73.0618V17.2801H70.4458L70.0858 16.0321H69.9898C69.8298 16.1921 69.6378 16.3601 69.4138 16.5361C69.1898 16.7121 68.9178 16.8801 68.5978 17.0401C68.2938 17.1841 67.9418 17.3041 67.5418 17.4001C67.1418 17.4961 66.6858 17.5441 66.1738 17.5441C64.9258 17.5441 63.9498 17.2001 63.2458 16.5121C62.5418 15.8241 62.1898 14.8081 62.1898 13.4641V5.76012H65.7418V13.1761C65.7418 13.7681 65.8858 14.2081 66.1738 14.4961C66.4778 14.7681 66.8618 14.9041 67.3258 14.9041C67.8858 14.9041 68.3418 14.7921 68.6938 14.5681C69.0618 14.3281 69.3338 14.0801 69.5098 13.8241V5.76012Z" fill="#6E74FF"/>
<path d="M87.5179 11.5681C87.5179 12.4961 87.3739 13.3281 87.0859 14.0641C86.8139 14.8001 86.4299 15.4321 85.9339 15.9601C85.4539 16.4721 84.8779 16.8641 84.2059 17.1361C83.5499 17.4081 82.8299 17.5441 82.0459 17.5441C81.2939 17.5441 80.6539 17.4321 80.1259 17.2081C79.5979 16.9681 79.1499 16.6401 78.7819 16.2241H78.6859L78.4699 17.2801H75.9019V0.120117H79.4299V6.55212C79.7979 6.24812 80.2299 6.00012 80.7259 5.80812C81.2219 5.60012 81.7739 5.49612 82.3819 5.49612C83.9819 5.49612 85.2379 6.03212 86.1499 7.10412C87.0619 8.16012 87.5179 9.64812 87.5179 11.5681ZM83.8699 11.6641C83.8699 10.4961 83.6459 9.62412 83.1979 9.04812C82.7499 8.47212 82.1179 8.18412 81.3019 8.18412C80.9179 8.18412 80.5499 8.28812 80.1979 8.49612C79.8619 8.68812 79.6139 8.88012 79.4539 9.07212V14.2561C79.6299 14.4641 79.8619 14.6321 80.1499 14.7601C80.4379 14.8881 80.7419 14.9521 81.0619 14.9521C81.4299 14.9521 81.7819 14.8881 82.1179 14.7601C82.4539 14.6321 82.7499 14.4321 83.0059 14.1601C83.2779 13.8881 83.4859 13.5441 83.6299 13.1281C83.7899 12.7121 83.8699 12.2241 83.8699 11.6641Z" fill="#6E74FF"/>
</svg>
